# xmcd CD database file
#
# Track frame offsets:
#	150
#	19800
#	41791
#	55204
#	71779
#	86582
#	101760
#
# Disc length: 1495 seconds
#
# Revision: 0
# Processed by: cddbd v1.5.2PL0 Copyright (c) Steve Scherf et al.
# Submitted via: CDex 1.75
#
DISCID=5e05d507
DTITLE=Alan Hanslik - From the Heart
DYEAR=2017
DGENRE=New Age
TTITLE0=Search for the Selkie
TTITLE1=Wayfarer Waltz
TTITLE2=Cobblestone Kitten
TTITLE3=Summers End
TTITLE4=New Classic
TTITLE5=Close the Door
TTITLE6=Petite Fete
EXTD=YEAR: 2017
EXTT0=
EXTT1=
EXTT2=
EXTT3=
EXTT4=
EXTT5=
EXTT6=
PLAYORDER=
